<svg width="21" height="20" fill="none" xmlns="http://www.w3.org/2000/svg"><g clip-path="url(#clip0_1_14)"><path d="M18.22 14.13c0 1.25-.363 2.257-1.088 2.942-.727.686-1.734 1.05-2.944 1.05H5.962c-1.21 0-2.218-.364-2.944-1.05-.725-.725-1.09-1.733-1.09-2.983V5.822c0-1.21 3.264-5.12 3.989-5.846C2.412-.022.075 2.316.075 5.822v8.266c0 1.734.564 3.227 1.693 4.315 1.089 1.048 2.54 1.573 4.194 1.573h8.226c1.733 0 3.185-.565 4.233-1.573 1.089-1.048 1.654-2.54 1.654-4.274V5.822c0-1.693-.565-3.145-1.613-4.193C17.414.54 15.92-.024 14.228-.024H5.92L3.018 2.88c.686-.686 1.734-1.049 2.944-1.049h8.306c1.21 0 2.218.363 2.944 1.09.686.725 1.088 1.733 1.088 2.902v8.307h-.08zm-2.863-8.187a1.17 1.17 0 10.068-2.337 1.17 1.17 0 00-.068 2.337zm-5.282 7.34a3.322 3.322 0 01-3.307-3.307 3.322 3.322 0 013.307-3.307 3.322 3.322 0 013.307 3.307 3.322 3.322 0 01-3.307 3.306v.001zm0-8.468c-2.822 0-5.161 2.298-5.161 5.161a5.147 5.147 0 005.161 5.161c2.863 0 5.16-2.339 5.16-5.16 0-2.824-2.338-5.162-5.16-5.162z" fill="#000"/></g><defs><clipPath id="clip0_1_14"><path fill="#fff" d="M0 0h21v20H0z"/></clipPath></defs></svg>